<mxfile host="65bd71144e">
    <diagram id="R39mfLks1kA2rLpzbtys" name="Page-1">
        <mxGraphModel dx="1057" dy="628" grid="1" gridSize="10" guides="1" tooltips="1" connect="1" arrows="1" fold="1" page="1" pageScale="1" pageWidth="827" pageHeight="1169" math="0" shadow="0">
            <root>
                <mxCell id="0"/>
                <mxCell id="1" parent="0"/>
                <mxCell id="2" value="Préparation d'une campagne" style="text;html=1;align=center;verticalAlign=middle;resizable=0;points=[];autosize=1;strokeColor=none;fillColor=none;" vertex="1" parent="1">
                    <mxGeometry x="410" y="60" width="180" height="30" as="geometry"/>
                </mxCell>
                <mxCell id="81" value="Chef de projet" style="swimlane;whiteSpace=wrap;html=1;gradientColor=none;swimlaneFillColor=default;" vertex="1" parent="1">
                    <mxGeometry x="300" y="100" width="410" height="1450" as="geometry">
                        <mxRectangle x="300" y="100" width="120" height="30" as="alternateBounds"/>
                    </mxGeometry>
                </mxCell>
                <mxCell id="84" value="" style="ellipse;fillColor=strokeColor;" vertex="1" parent="81">
                    <mxGeometry x="180" y="50" width="30" height="30" as="geometry"/>
                </mxCell>
                <mxCell id="86" value="Vérifier si les référentiels sont à jour" style="rounded=1;whiteSpace=wrap;html=1;" vertex="1" parent="81">
                    <mxGeometry x="135" y="150" width="120" height="60" as="geometry"/>
                </mxCell>
                <mxCell id="83" value="" style="edgeStyle=none;html=1;entryX=0.5;entryY=0;entryDx=0;entryDy=0;" edge="1" parent="81" source="84" target="86">
                    <mxGeometry relative="1" as="geometry">
                        <mxPoint x="195" y="145" as="targetPoint"/>
                    </mxGeometry>
                </mxCell>
                <mxCell id="87" value="Création de la campagne" style="rounded=1;whiteSpace=wrap;html=1;" vertex="1" parent="81">
                    <mxGeometry x="135" y="410" width="120" height="60" as="geometry"/>
                </mxCell>
                <mxCell id="89" value="A jour" style="edgeStyle=none;html=1;" edge="1" parent="81" source="90" target="87">
                    <mxGeometry relative="1" as="geometry"/>
                </mxCell>
                <mxCell id="90" value="" style="rhombus;whiteSpace=wrap;html=1;rounded=1;" vertex="1" parent="81">
                    <mxGeometry x="155" y="280" width="80" height="80" as="geometry"/>
                </mxCell>
                <mxCell id="85" value="" style="edgeStyle=none;html=1;" edge="1" parent="81" source="86" target="90">
                    <mxGeometry relative="1" as="geometry"/>
                </mxCell>
                <mxCell id="95" value="" style="edgeStyle=none;html=1;exitX=0.5;exitY=1;exitDx=0;exitDy=0;" edge="1" parent="81" source="87" target="97">
                    <mxGeometry relative="1" as="geometry">
                        <mxPoint x="195" y="510" as="sourcePoint"/>
                    </mxGeometry>
                </mxCell>
                <mxCell id="97" value="Affectation de la campagne à l'auditeur" style="rounded=1;whiteSpace=wrap;html=1;" vertex="1" parent="81">
                    <mxGeometry x="135" y="555" width="120" height="60" as="geometry"/>
                </mxCell>
                <mxCell id="99" value="Chargement de la campagne" style="rounded=1;whiteSpace=wrap;html=1;" vertex="1" parent="81">
                    <mxGeometry x="135" y="660" width="120" height="60" as="geometry"/>
                </mxCell>
                <mxCell id="96" value="" style="edgeStyle=none;html=1;" edge="1" parent="81" source="97" target="99">
                    <mxGeometry relative="1" as="geometry"/>
                </mxCell>
                <mxCell id="101" value="Audit sur site" style="rounded=1;whiteSpace=wrap;html=1;" vertex="1" parent="81">
                    <mxGeometry x="135" y="890" width="120" height="60" as="geometry"/>
                </mxCell>
                <mxCell id="102" value="Synchronisation de la campagne" style="rounded=1;whiteSpace=wrap;html=1;" vertex="1" parent="81">
                    <mxGeometry x="137.5" y="1000" width="120" height="60" as="geometry"/>
                </mxCell>
                <mxCell id="100" value="" style="edgeStyle=none;html=1;" edge="1" parent="81" source="101" target="102">
                    <mxGeometry relative="1" as="geometry"/>
                </mxCell>
                <mxCell id="103" value="" style="edgeStyle=none;html=1;" edge="1" parent="81" source="102" target="106">
                    <mxGeometry relative="1" as="geometry">
                        <mxPoint x="184.47000000000003" y="1225" as="sourcePoint"/>
                        <mxPoint x="184.47000000000003" y="1275" as="targetPoint"/>
                    </mxGeometry>
                </mxCell>
                <mxCell id="106" value="" style="rhombus;whiteSpace=wrap;html=1;" vertex="1" parent="81">
                    <mxGeometry x="150" y="1110" width="80" height="80" as="geometry"/>
                </mxCell>
                <mxCell id="161" style="edgeStyle=none;html=1;exitX=0.5;exitY=0;exitDx=0;exitDy=0;entryX=1;entryY=0.5;entryDx=0;entryDy=0;" edge="1" parent="81" source="108" target="102">
                    <mxGeometry relative="1" as="geometry">
                        <Array as="points">
                            <mxPoint x="323" y="1030"/>
                        </Array>
                    </mxGeometry>
                </mxCell>
                <mxCell id="108" value="Modification de l'audit" style="rounded=1;whiteSpace=wrap;html=1;" vertex="1" parent="81">
                    <mxGeometry x="275" y="1120" width="120" height="60" as="geometry"/>
                </mxCell>
                <mxCell id="104" value="" style="edgeStyle=none;html=1;" edge="1" parent="81" source="106" target="108">
                    <mxGeometry relative="1" as="geometry"/>
                </mxCell>
                <mxCell id="109" value="" style="ellipse;html=1;shape=endState;" vertex="1" parent="81">
                    <mxGeometry x="175" y="1250" width="30" height="30" as="geometry"/>
                </mxCell>
                <mxCell id="105" value="Cloture" style="edgeStyle=none;html=1;" edge="1" parent="81" source="106" target="109">
                    <mxGeometry relative="1" as="geometry"/>
                </mxCell>
                <mxCell id="115" value="" style="edgeStyle=none;html=1;" edge="1" parent="81" source="116" target="101">
                    <mxGeometry relative="1" as="geometry"/>
                </mxCell>
                <mxCell id="163" value="Validée" style="edgeLabel;html=1;align=center;verticalAlign=middle;resizable=0;points=[];" vertex="1" connectable="0" parent="115">
                    <mxGeometry x="-0.365" y="-2" relative="1" as="geometry">
                        <mxPoint as="offset"/>
                    </mxGeometry>
                </mxCell>
                <mxCell id="116" value="" style="rhombus;whiteSpace=wrap;html=1;rounded=1;" vertex="1" parent="81">
                    <mxGeometry x="175" y="750" width="80" height="80" as="geometry"/>
                </mxCell>
                <mxCell id="118" value="Modification de la campagne" style="rounded=1;whiteSpace=wrap;html=1;" vertex="1" parent="81">
                    <mxGeometry x="7.5" y="760" width="120" height="60" as="geometry"/>
                </mxCell>
                <mxCell id="114" value="" style="edgeStyle=none;html=1;" edge="1" parent="81" source="116" target="118">
                    <mxGeometry relative="1" as="geometry"/>
                </mxCell>
                <mxCell id="157" style="edgeStyle=none;html=1;exitX=0.5;exitY=0;exitDx=0;exitDy=0;entryX=0;entryY=0.5;entryDx=0;entryDy=0;" edge="1" parent="81" source="118" target="99">
                    <mxGeometry relative="1" as="geometry">
                        <mxPoint x="74.57894736842104" y="660" as="targetPoint"/>
                        <Array as="points">
                            <mxPoint x="75" y="690"/>
                        </Array>
                    </mxGeometry>
                </mxCell>
                <mxCell id="150" value="Chargé de référentiel" style="swimlane;whiteSpace=wrap;html=1;gradientColor=none;swimlaneFillColor=default;" vertex="1" parent="1">
                    <mxGeometry y="100" width="280" height="1450" as="geometry"/>
                </mxCell>
                <mxCell id="151" value="Mettre à jour les référentiels" style="rounded=1;whiteSpace=wrap;html=1;" vertex="1" parent="150">
                    <mxGeometry x="70" y="290" width="120" height="60" as="geometry"/>
                </mxCell>
                <mxCell id="152" value="" style="edgeStyle=none;html=1;dashed=1;dashPattern=8 8;" edge="1" parent="150" source="153" target="151">
                    <mxGeometry relative="1" as="geometry"/>
                </mxCell>
                <mxCell id="153" value="Voir les fonctionnalités d'imports de matériels" style="shape=note2;boundedLbl=1;whiteSpace=wrap;html=1;size=25;verticalAlign=top;align=center;" vertex="1" parent="150">
                    <mxGeometry x="40" y="140" width="180" height="90" as="geometry"/>
                </mxCell>
                <mxCell id="154" style="edgeStyle=none;html=1;exitX=0;exitY=0.5;exitDx=0;exitDy=0;" edge="1" parent="1" source="90">
                    <mxGeometry relative="1" as="geometry">
                        <mxPoint x="190" y="420.42105263157896" as="targetPoint"/>
                    </mxGeometry>
                </mxCell>
                <mxCell id="162" value="[Pas à jour]" style="edgeLabel;html=1;align=center;verticalAlign=middle;resizable=0;points=[];" vertex="1" connectable="0" parent="154">
                    <mxGeometry x="-0.2753" y="-4" relative="1" as="geometry">
                        <mxPoint as="offset"/>
                    </mxGeometry>
                </mxCell>
                <mxCell id="155" style="edgeStyle=none;html=1;exitX=0.5;exitY=1;exitDx=0;exitDy=0;entryX=0;entryY=0.5;entryDx=0;entryDy=0;" edge="1" parent="1" source="151" target="87">
                    <mxGeometry relative="1" as="geometry">
                        <mxPoint x="130.36842105263167" y="580" as="targetPoint"/>
                        <Array as="points">
                            <mxPoint x="130" y="540"/>
                        </Array>
                    </mxGeometry>
                </mxCell>
                <mxCell id="156" value="Auditeur" style="swimlane;whiteSpace=wrap;html=1;gradientColor=none;swimlaneFillColor=default;" vertex="1" parent="1">
                    <mxGeometry x="740" y="100" width="250" height="1450" as="geometry"/>
                </mxCell>
                <mxCell id="158" value="Validation" style="rounded=1;whiteSpace=wrap;html=1;gradientColor=none;" vertex="1" parent="156">
                    <mxGeometry x="50" y="760" width="120" height="60" as="geometry"/>
                </mxCell>
                <mxCell id="159" style="edgeStyle=none;html=1;exitX=1;exitY=0.5;exitDx=0;exitDy=0;" edge="1" parent="1" source="99">
                    <mxGeometry relative="1" as="geometry">
                        <mxPoint x="850" y="870" as="targetPoint"/>
                        <Array as="points">
                            <mxPoint x="850" y="790"/>
                        </Array>
                    </mxGeometry>
                </mxCell>
                <mxCell id="160" style="edgeStyle=none;html=1;exitX=0;exitY=0.5;exitDx=0;exitDy=0;entryX=1;entryY=0.5;entryDx=0;entryDy=0;" edge="1" parent="1" source="158" target="116">
                    <mxGeometry relative="1" as="geometry"/>
                </mxCell>
            </root>
        </mxGraphModel>
    </diagram>
</mxfile>